<?xml version="1.0" encoding="utf-8"?>
<!-- Generator: Adobe Illustrator 25.2.0, SVG Export Plug-In . SVG Version: 6.00 Build 0)  -->
<svg version="1.1" xmlns="http://www.w3.org/2000/svg" xmlns:xlink="http://www.w3.org/1999/xlink" x="0px" y="0px"
	 viewBox="0 0 207.7 48.2" style="enable-background:new 0 0 207.7 48.2;" xml:space="preserve">
<style type="text/css">
	.st0{fill:#111111;}
	.st1{fill:#0C0CFA;}
	.st2{fill:#121112;}
	.st3{fill:#36B04A;}
	.st4{fill:#F9AE42;}
	.st5{fill:#EE3753;}
	.st6{fill:#37B24A;}
	.st7{fill:#FAAF43;}
	.st8{fill:#EF3854;}
</style>
<g id="Layer_32">
</g>
<g id="Layer_31">
</g>
<g id="Layer_30">
</g>
<g id="Layer_29">
</g>
<g id="Layer_28">
</g>
<g id="Layer_27">
</g>
<g id="Layer_26">
</g>
<g id="Layer_25">
</g>
<g id="Layer_24">
</g>
<g id="Layer_23">
</g>
<g id="Layer_22">
</g>
<g id="Layer_21">
</g>
<g id="Layer_20">
</g>
<g id="Layer_19">
</g>
<g id="Layer_18">
</g>
<g id="Layer_17">
</g>
<g id="Layer_16">
</g>
<g id="Layer_15">
</g>
<g id="Layer_14">
</g>
<g id="Layer_13">
</g>
<g id="Layer_12">
</g>
<g id="Layer_11">
</g>
<g id="Layer_10">
	<g>
		<g>
			<g>
				<path class="st2" d="M48.5,27.7l-5.1-13.5l-1.7-0.3v-2.5h7.7v2.5l-1.8,0.3l2.7,7.8l0.4,1.3h0.1l0.4-1.3l2.8-7.8l-2-0.3v-2.5h7.7
					v2.5l-1.8,0.3l-5.2,13.5H48.5z"/>
				<path class="st2" d="M67.8,28c-1.6,0-2.9-0.4-3.9-1.3s-1.4-2-1.4-3.5c0-1,0.3-1.9,0.8-2.7c0.6-0.8,1.4-1.4,2.5-1.8
					s2.4-0.7,4-0.7h2.3v-1.3c0-0.8-0.2-1.5-0.7-2c-0.5-0.5-1.2-0.8-2.1-0.8c-0.5,0-1,0.1-1.4,0.2c-0.4,0.1-0.8,0.3-1.1,0.5l-0.3,2.2
					h-3l0-4.1c0.8-0.5,1.7-0.9,2.7-1.2c1-0.3,2.1-0.5,3.3-0.5c2.1,0,3.7,0.5,5,1.5s1.8,2.4,1.8,4.2v6.9c0,0.2,0,0.4,0,0.6
					c0,0.2,0,0.4,0.1,0.6l1.7,0.2v2.5h-5.2c-0.1-0.3-0.2-0.6-0.3-1c-0.1-0.3-0.2-0.7-0.2-1c-0.5,0.7-1.2,1.2-1.9,1.6
					C69.6,27.8,68.8,28,67.8,28z M68.8,24.9c0.7,0,1.3-0.2,1.9-0.5c0.6-0.3,1.1-0.7,1.4-1.2v-2.6h-2.3c-1.1,0-1.8,0.2-2.4,0.7
					c-0.5,0.5-0.8,1.1-0.8,1.7c0,0.6,0.2,1.1,0.6,1.4C67.6,24.8,68.1,24.9,68.8,24.9z"/>
				<path class="st2" d="M81,27.7v-2.5l2.2-0.5V7.2l-2.4-0.5V4.3h6.4v20.5l2.2,0.5v2.5H81z"/>
				<path class="st2" d="M92.5,27.7v-2.5l2.2-0.5V14.4l-2.4-0.5v-2.5h6.4v13.3l2.2,0.5v2.5H92.5z M94.5,7.9V4.3h4.2v3.6H94.5z"/>
				<path class="st2" d="M110.3,28c-1.3,0-2.4-0.3-3.3-1c-0.9-0.7-1.6-1.6-2.1-2.8s-0.7-2.6-0.7-4.2v-0.3c0-1.7,0.2-3.2,0.7-4.5
					c0.5-1.3,1.2-2.3,2.1-3c0.9-0.7,2-1.1,3.3-1.1c0.9,0,1.7,0.2,2.4,0.5c0.7,0.4,1.3,0.9,1.8,1.5v-6l-2.4-0.5V4.3h2.4h4.1v20.5
					l2.2,0.5v2.5H115l-0.3-2c-0.5,0.8-1.1,1.3-1.8,1.7C112.1,27.8,111.3,28,110.3,28z M111.5,24.8c0.7,0,1.3-0.1,1.7-0.4
					c0.5-0.3,0.9-0.7,1.2-1.2v-7c-0.3-0.6-0.7-1-1.2-1.3c-0.5-0.3-1.1-0.5-1.7-0.5c-0.8,0-1.4,0.2-1.9,0.7s-0.9,1.1-1.1,1.9
					c-0.2,0.8-0.4,1.7-0.4,2.8v0.3c0,1.5,0.3,2.6,0.8,3.5C109.5,24.4,110.3,24.8,111.5,24.8z"/>
				<path class="st2" d="M129.2,28c-1.6,0-2.9-0.4-3.9-1.3s-1.4-2-1.4-3.5c0-1,0.3-1.9,0.8-2.7c0.6-0.8,1.4-1.4,2.5-1.8
					c1.1-0.4,2.4-0.7,4-0.7h2.3v-1.3c0-0.8-0.2-1.5-0.7-2c-0.5-0.5-1.2-0.8-2.1-0.8c-0.5,0-1,0.1-1.4,0.2c-0.4,0.1-0.8,0.3-1.1,0.5
					l-0.3,2.2h-3l0-4.1c0.8-0.5,1.7-0.9,2.7-1.2c1-0.3,2.1-0.5,3.3-0.5c2.1,0,3.7,0.5,5,1.5c1.2,1,1.8,2.4,1.8,4.2v6.9
					c0,0.2,0,0.4,0,0.6c0,0.2,0,0.4,0.1,0.6l1.7,0.2v2.5h-5.2c-0.1-0.3-0.2-0.6-0.3-1c-0.1-0.3-0.2-0.7-0.2-1
					c-0.5,0.7-1.2,1.2-1.9,1.6C131,27.8,130.2,28,129.2,28z M130.2,24.9c0.7,0,1.3-0.2,1.9-0.5c0.6-0.3,1.1-0.7,1.4-1.2v-2.6h-2.3
					c-1.1,0-1.8,0.2-2.4,0.7c-0.5,0.5-0.8,1.1-0.8,1.7c0,0.6,0.2,1.1,0.6,1.4C129,24.8,129.5,24.9,130.2,24.9z"/>
				<path class="st2" d="M148.9,28c-1.4,0-2.6-0.4-3.4-1.2c-0.8-0.8-1.2-2.1-1.2-3.8v-8.6H142v-2.9h2.3v-4h4.1v4h3.1v2.9h-3.1V23
					c0,0.7,0.1,1.1,0.4,1.4c0.3,0.3,0.7,0.4,1.1,0.4c0.3,0,0.5,0,0.9-0.1s0.6-0.1,0.8-0.1l0.4,2.9c-0.5,0.1-0.9,0.2-1.5,0.3
					C149.9,28,149.4,28,148.9,28z"/>
				<path class="st2" d="M155.4,27.7v-2.5l2.2-0.5V14.4l-2.3-0.5v-2.5h6.1l0.2,2l0,0.3c0.4-0.9,0.9-1.5,1.5-2
					c0.6-0.5,1.3-0.7,2.2-0.7c0.3,0,0.6,0,0.9,0.1s0.6,0.1,0.8,0.2l-0.5,3.8l-2.2-0.1c-0.7,0-1.2,0.1-1.6,0.4
					c-0.4,0.3-0.8,0.7-1.1,1.2v8.2l2.2,0.5v2.5H155.4z"/>
				<path class="st1" d="M170.9,27.7V24h4.1v3.7H170.9z"/>
				<path class="st2" d="M179.1,27.7v-2.5l2.2-0.5V14.4l-2.4-0.5v-2.5h6.4v13.3l2.2,0.5v2.5H179.1z M181.1,7.9V4.3h4.2v3.6H181.1z"
					/>
				<path class="st2" d="M198.3,28c-1.6,0-3-0.4-4.1-1.1s-2-1.7-2.6-2.9c-0.6-1.2-0.9-2.7-0.9-4.3v-0.3c0-1.6,0.3-3,0.9-4.3
					c0.6-1.2,1.5-2.2,2.6-2.9c1.1-0.7,2.5-1.1,4.1-1.1c1.6,0,2.9,0.4,4.1,1.1c1.1,0.7,2,1.7,2.6,2.9c0.6,1.2,0.9,2.7,0.9,4.3v0.3
					c0,1.6-0.3,3.1-0.9,4.3c-0.6,1.2-1.5,2.2-2.6,2.9C201.3,27.7,199.9,28,198.3,28z M198.3,24.9c0.8,0,1.4-0.2,2-0.6
					c0.5-0.4,0.9-1,1.1-1.8c0.3-0.8,0.4-1.7,0.4-2.7v-0.3c0-1-0.1-1.9-0.4-2.7c-0.3-0.8-0.6-1.4-1.2-1.8c-0.5-0.4-1.2-0.7-2-0.7
					s-1.5,0.2-2,0.7c-0.5,0.4-0.9,1-1.2,1.8c-0.2,0.8-0.4,1.7-0.4,2.7v0.3c0,1,0.1,1.9,0.4,2.7c0.2,0.8,0.6,1.4,1.2,1.8
					C196.9,24.7,197.5,24.9,198.3,24.9z"/>
			</g>
		</g>
		<g>
			<g>
				<path class="st2" d="M47,44.4v-7.7h0.9v7.7H47z"/>
				<path class="st2" d="M60.4,44.4h-0.9v-1.2c-0.4,0.8-1.2,1.3-2.3,1.3c-1.6,0-2.8-1.2-2.8-2.9c0-1.7,1.1-2.9,2.8-2.9
					c1,0,1.8,0.5,2.3,1.3v-3.6h0.9V44.4z M59.5,41.6c0-1.3-0.9-2.2-2.1-2.2c-1.2,0-2.1,0.9-2.1,2.2c0,1.3,0.9,2.2,2.1,2.2
					C58.7,43.7,59.5,42.8,59.5,41.6z"/>
				<path class="st2" d="M72.5,41.9h-4.7c0.2,1.1,1,1.8,2.1,1.8c0.7,0,1.3-0.3,1.8-0.7l0.5,0.5c-0.5,0.6-1.4,1-2.3,1
					c-1.7,0-2.9-1.2-2.9-2.9s1.2-2.9,2.9-2.9C71.6,38.6,72.6,39.9,72.5,41.9z M71.7,41.2c-0.1-1.1-0.8-1.8-1.9-1.8
					c-1.1,0-1.9,0.7-2,1.8H71.7z"/>
				<path class="st2" d="M82.5,43.5c-0.5,0.6-1.2,0.9-2.1,0.9c-1.2,0-2-0.8-2-1.8c0-1,0.8-1.7,2.2-1.7h1.9v-0.3
					c0-0.8-0.5-1.4-1.6-1.4c-0.6,0-1.2,0.2-1.8,0.7l-0.4-0.6c0.7-0.5,1.4-0.8,2.4-0.8c1.4,0,2.2,0.8,2.2,2l0,3.8h-0.8V43.5z
					 M82.5,42.4v-0.7h-1.8c-1,0-1.5,0.3-1.5,0.9c0,0.6,0.5,1.1,1.3,1.1C81.5,43.7,82.3,43.2,82.5,42.4z"/>
				<path class="st2" d="M101.2,44c-0.4,0.3-0.8,0.4-1.3,0.4c-0.8,0-1.5-0.5-1.5-1.7v-3.3h-0.8v-0.7h0.8v-1.5h0.8v1.5l1.8,0v0.7
					h-1.8v3.2c0,0.7,0.3,1,0.8,1c0.3,0,0.6-0.1,0.9-0.3L101.2,44z"/>
				<path class="st2" d="M112.6,41.5c0,1.7-1.2,2.9-2.9,2.9c-1.7,0-2.9-1.2-2.9-2.9c0-1.7,1.2-2.9,2.9-2.9
					C111.4,38.6,112.6,39.8,112.6,41.5z M107.6,41.5c0,1.3,0.9,2.2,2.1,2.2c1.2,0,2.1-0.9,2.1-2.2c0-1.3-0.9-2.1-2.1-2.1
					C108.5,39.4,107.6,40.3,107.6,41.5z"/>
				<path class="st2" d="M129.5,37.6v6.9h-0.9v-6.9h-2.5v-0.8h5.9v0.8H129.5z"/>
				<path class="st2" d="M138.4,39.9c0.4-0.8,1.1-1.3,2.1-1.3v0.9c-1.2,0-2,0.7-2.1,1.9v3.1h-0.9v-5.8h0.9V39.9z"/>
				<path class="st2" d="M149.9,43.5c-0.5,0.6-1.2,0.9-2.1,0.9c-1.2,0-2-0.8-2-1.8c0-1,0.8-1.7,2.2-1.7h1.9v-0.3
					c0-0.8-0.5-1.4-1.6-1.4c-0.6,0-1.2,0.2-1.8,0.7l-0.4-0.6c0.7-0.5,1.4-0.8,2.4-0.8c1.4,0,2.2,0.8,2.2,2l0,3.8h-0.8V43.5z
					 M149.9,42.4v-0.7h-1.8c-1,0-1.5,0.3-1.5,0.9c0,0.6,0.5,1.1,1.3,1.1C149,43.7,149.7,43.2,149.9,42.4z"/>
				<path class="st2" d="M162.2,39.5l-0.5,0.6c-0.4-0.4-1-0.7-1.7-0.7c-1.2,0-2.1,0.9-2.1,2.1s0.9,2.1,2.1,2.1
					c0.8,0,1.4-0.3,1.8-0.7l0.5,0.5c-0.5,0.6-1.3,1-2.3,1c-1.7,0-2.9-1.2-2.9-2.9s1.2-2.9,2.9-2.9C160.9,38.6,161.6,38.9,162.2,39.5
					z"/>
				<path class="st2" d="M171.7,44c-0.4,0.3-0.8,0.4-1.3,0.4c-0.8,0-1.5-0.5-1.5-1.7v-3.3h-0.8v-0.7h0.8v-1.5h0.8v1.5l1.8,0v0.7
					h-1.8v3.2c0,0.7,0.3,1,0.8,1c0.3,0,0.6-0.1,0.9-0.3L171.7,44z"/>
				<path class="st2" d="M179,37c0,0.3-0.2,0.6-0.6,0.6s-0.6-0.3-0.6-0.6c0-0.3,0.2-0.6,0.6-0.6S179,36.6,179,37z M178,44.4v-5.8
					h0.8v5.8H178z"/>
				<path class="st2" d="M191.2,41.5c0,1.7-1.2,2.9-2.9,2.9c-1.7,0-2.9-1.2-2.9-2.9c0-1.7,1.2-2.9,2.9-2.9
					C189.9,38.6,191.2,39.8,191.2,41.5z M186.2,41.5c0,1.3,0.9,2.2,2.1,2.2c1.2,0,2.1-0.9,2.1-2.2c0-1.3-0.9-2.1-2.1-2.1
					C187,39.4,186.2,40.3,186.2,41.5z"/>
				<path class="st2" d="M202.9,40.9v3.6h-0.9v-3.3c0-1-0.6-1.6-1.6-1.6c-1.1,0-1.8,0.8-1.9,1.9v3.1h-0.9v-5.8h0.9v1.3
					c0.4-0.9,1.2-1.3,2.2-1.3C202.1,38.6,202.9,39.5,202.9,40.9z"/>
			</g>
		</g>
		<circle class="st3" cx="27.8" cy="19.4" r="7.5"/>
		<path class="st4" d="M20.3,19.4c0,3.2-2.6,5.8-5.8,5.8s-5.8-2.6-5.8-5.8c0-3.2,2.6-5.8,5.8-5.8S20.3,16.2,20.3,19.4z"/>
		<path class="st5" d="M8.7,19.4c0,2.2-1.7,3.9-3.9,3.9c-2.2,0-3.9-1.7-3.9-3.9c0-2.2,1.7-3.9,3.9-3.9C7,15.5,8.7,17.3,8.7,19.4z"/>
	</g>
</g>
<g id="Layer_9">
</g>
<g id="Layer_8">
</g>
<g id="Layer_5">
</g>
<g id="Layer_4">
</g>
<g id="Layer_3">
</g>
</svg>
